<svg width="40" height="55" viewBox="0 0 40 55" fill="none" xmlns="http://www.w3.org/2000/svg">
<path d="M40 39.9124C40.0065 43.49 36.2117 45.7275 33.181 43.9329L13.2804 32.1489C11.8821 31.3209 11.0202 29.7963 11.0171 28.1456L10.9744 4.65316C10.9679 1.07552 14.7627 -1.16197 17.7934 0.632616L37.694 12.4166C39.0923 13.2446 39.9542 14.7693 39.9572 16.4199L40 39.9124Z" fill="white"/>
<path d="M8.37154e-06 15.0876C-0.00650441 11.51 3.78833 9.27251 6.81898 11.0671L26.7196 22.8511C28.1179 23.6791 28.9799 25.2037 28.9829 26.8544L29.0256 50.3468C29.0321 53.9245 25.2373 56.162 22.2066 54.3674L2.30602 42.5834C0.907723 41.7554 0.0457791 40.2307 0.0427742 38.5801L8.37154e-06 15.0876Z" fill="white"/>
</svg>
